<?xml version="1.0" encoding="UTF-8" standalone="no"?>
<!-- Created with Inkscape (http://www.inkscape.org/) -->

<svg
   xmlns:dc="http://purl.org/dc/elements/1.1/"
   xmlns:cc="http://creativecommons.org/ns#"
   xmlns:rdf="http://www.w3.org/1999/02/22-rdf-syntax-ns#"
   xmlns:svg="http://www.w3.org/2000/svg"
   xmlns="http://www.w3.org/2000/svg"
   xmlns:sodipodi="http://sodipodi.sourceforge.net/DTD/sodipodi-0.dtd"
   xmlns:inkscape="http://www.inkscape.org/namespaces/inkscape"
   width="100"
   height="50"
   id="svg3397"
   version="1.1"
   inkscape:version="0.48.4 r9939"
   sodipodi:docname="bluecar.svg">
  <defs
     id="defs3399" />
  <sodipodi:namedview
     id="base"
     pagecolor="#ffffff"
     bordercolor="#666666"
     borderopacity="1.0"
     inkscape:pageopacity="0.0"
     inkscape:pageshadow="2"
     inkscape:zoom="0.35"
     inkscape:cx="-201.07141"
     inkscape:cy="181.43699"
     inkscape:document-units="px"
     inkscape:current-layer="layer1"
     showgrid="false"
     fit-margin-top="0"
     fit-margin-left="0"
     fit-margin-right="0"
     fit-margin-bottom="0"
     inkscape:window-width="1364"
     inkscape:window-height="680"
     inkscape:window-x="0"
     inkscape:window-y="0"
     inkscape:window-maximized="1" />
  <metadata
     id="metadata3402">
    <rdf:RDF>
      <cc:Work
         rdf:about="">
        <dc:format>image/svg+xml</dc:format>
        <dc:type
           rdf:resource="http://purl.org/dc/dcmitype/StillImage" />
        <dc:title />
      </cc:Work>
    </rdf:RDF>
  </metadata>
  <g
     inkscape:label="Layer 1"
     inkscape:groupmode="layer"
     id="layer1"
     transform="translate(-113.21427,-663.79916)">
    <g
       id="g3245"
       transform="matrix(0,0.2272554,-0.22617123,0,328.63462,825.05926)">
      <path
         inkscape:export-ydpi="90"
         inkscape:export-xdpi="90"
         inkscape:export-filename="C:\Users\Dovile\Desktop\doodles\racer\blue.png"
         sodipodi:nodetypes="cacaaasccssccscsaaassccsccccaassasssssacssccscccc"
         inkscape:connector-curvature="0"
         id="path2995-4-8-2"
         d="m -661.04098,526.47548 c 5.52698,-4.2546 11.89792,-7.47889 18.44912,-9.87282 8.35529,-3.05317 17.24591,-4.7334 26.1044,-5.54556 12.82899,-1.17617 25.91378,-1.01194 38.63483,1.02307 10.06693,1.61043 20.05594,4.4712 29.30084,8.76871 7.68735,3.57347 14.83992,8.41374 21.28003,13.92646 4.47192,3.82795 8.58376,8.20008 11.83383,13.10806 3.20592,4.84131 5.6019,10.25625 7.348,15.79405 2.26924,7.19694 2.78551,14.86464 3.95105,22.29118 1.46135,9.58087 0.78169,32.78738 -0.6844,42.61792 -0.53224,3.56885 -1.24536,16.81803 -1.58472,29.44262 l -0.61699,22.9538 3.2385,0.97415 c 3.76884,1.57965 7.12228,4.63154 9.76045,7.42287 4.4623,4.83947 5.80713,9.88919 2.91831,10.95802 -2.10439,0.7786 -14.65757,-5.81971 -15.58413,-8.19148 -0.64906,-1.66143 -2.29453,48.12632 -1.96325,59.4028 0.30101,10.2463 1.449,16.67628 2.01625,25.02609 0.80203,10.84402 2.00014,21.1557 2.58697,31.561 0.43829,4.16649 1.184,10.56244 1.40041,12.49019 2.61495,23.29376 3.02297,30.89171 2.71386,50.53633 -0.27855,17.70561 -1.536,24.46154 -2.92614,28.46958 -1.89112,5.45247 -6.59742,18.2599 -12.9241,26.52222 -3.69034,4.81937 -8.57264,8.73903 -13.68004,12.01918 -3.1955,2.05228 -6.80912,3.41545 -10.39875,4.65547 -10.65727,3.6815 -24.74527,7.22027 -32.8214,8.18127 -10.06105,1.19721 -24.48113,1.46934 -25.96994,1.45451 l -7.35806,-0.0733 c -1.60714,0.12033 -7.77806,-0.72937 -11.89889,-1.14331 -2.74196,-0.033 -6.86709,-0.49205 -9.16695,-1.02009 -2.29986,-0.52804 -7.3252,-1.50847 -11.16741,-2.17874 -3.50802,-0.25192 -31.61163,-9.47429 -36.79943,-14.64104 -3.44582,-2.15902 -7.91273,-5.76601 -9.23434,-9.84532 -8.15469,-10.81861 -12.88205,-24.02139 -14.76297,-37.39377 -1.55814,-10.81609 0.94343,-49.19023 3.09475,-73.67636 1.00189,-11.40331 4.06811,-22.60061 4.56382,-34.03711 0.93722,-21.62265 0.72355,-35.0298 0.59746,-52.54572 -0.0469,-6.51436 -0.22018,-12.67238 -0.50359,-19.53711 -0.2834,-6.86474 -0.62341,-12.59212 -0.75558,-12.72751 -0.13217,-0.13539 -3.36019,1.27675 -7.17339,3.1381 -9.13828,4.46072 -11.00277,4.44615 -10.21229,-0.0797 0.97192,-5.56479 10.25577,-13.9533 15.37433,-13.89168 2.22304,0.0268 1.29628,-8.0214 1.54419,-12.06992 0.23254,-3.79756 -0.0563,-11.41388 -0.0563,-11.41388 -0.6189,-13.85449 -1.7779,-26.37403 -3.32895,-35.95945 -2.20072,-13.60031 -0.40222,-40.68471 3.48916,-52.54503 1.67838,-5.1154 5.03695,-12.01087 8.38838,-17.56763 6.37855,-11.17583 14.31352,-20.77818 22.98308,-26.78116 z"
         style="fill:#000000" />
      <path
         inkscape:export-ydpi="90"
         inkscape:export-xdpi="90"
         inkscape:export-filename="C:\Users\Dovile\Desktop\doodles\racer\blue.png"
         inkscape:connector-curvature="0"
         id="path3029-98"
         d="m -516.40268,678.56532 c -1.85751,-1.08245 -4.68763,-5.84539 -8.62058,-14.50798 -2.11855,-4.66623 -4.58219,-9.44152 -5.47477,-10.61176 -1.41646,-1.85706 -2.86667,-7.66064 -11.40135,-45.62667 -5.37816,-23.92443 -9.69779,-43.59531 -9.59918,-43.71305 0.70265,-0.83905 25.04588,6.73274 32.47403,10.10082 l 3.72335,1.68825 0.72393,5.43728 c 1.52318,11.44036 2.06207,30.74708 1.75562,62.89753 -0.16916,17.746 -0.50209,32.87609 -0.73986,33.62242 -0.46871,1.47123 -1.2177,1.65924 -2.84119,0.71316 z"
         style="fill:#0066ff;fill-opacity:1;fill-rule:evenodd;stroke:#000000;stroke-width:0.60309279;stroke-linecap:butt;stroke-linejoin:miter;stroke-miterlimit:4;stroke-opacity:1;stroke-dasharray:none;stroke-dashoffset:0" />
      <path
         inkscape:export-ydpi="90"
         inkscape:export-xdpi="90"
         inkscape:export-filename="C:\Users\Dovile\Desktop\doodles\racer\blue.png"
         inkscape:connector-curvature="0"
         id="path3031-5"
         d="m -685.34783,678.13369 c -0.62967,-2.95355 -1.89529,-49.47727 -1.85747,-68.28024 0.0387,-19.25829 0.58905,-25.23579 2.74878,-29.85723 0.62111,-1.32907 1.68821,-2.76555 2.37133,-3.19216 0.68311,-0.42661 6.11958,-2.38072 12.08103,-4.34246 5.96146,-1.96174 13.02668,-4.64254 15.7005,-5.95734 4.52884,-2.22696 4.84092,-2.30094 4.56078,-1.08124 -0.16539,0.72011 -3.8948,18.94976 -8.28757,40.51032 -7.11658,34.92956 -8.17213,39.47311 -9.68716,41.69797 -2.66292,3.9106 -5.62299,10.15923 -8.38789,17.70668 -3.32867,9.08641 -4.31084,10.9392 -6.80895,12.84461 l -2.08406,1.58959 -0.34932,-1.6385 0,0 z"
         style="fill:#0066ff;fill-opacity:1;fill-rule:evenodd;stroke:#000000;stroke-width:0.60309279;stroke-linecap:butt;stroke-linejoin:miter;stroke-miterlimit:4;stroke-opacity:1;stroke-dasharray:none;stroke-dashoffset:0" />
      <path
         inkscape:export-ydpi="90"
         inkscape:export-xdpi="90"
         inkscape:export-filename="C:\Users\Dovile\Desktop\doodles\racer\blue.png"
         inkscape:connector-curvature="0"
         id="path3033-0"
         d="m -536.16755,533.03567 c -7.31051,-4.24561 -14.68703,-6.24575 -20.03893,-5.43354 -3.30612,0.50175 -4.68788,1.72746 -4.68788,4.15847 l 0,1.93156 -5.88015,-1.36614 c -9.2184,-2.14171 -17.98297,-2.90745 -33.62242,-2.93753 -15.33786,-0.0295 -21.27211,0.5213 -32.49729,3.01626 -3.61036,0.80245 -6.66352,1.45901 -6.7848,1.45901 -0.12127,0 -0.22049,-0.50229 -0.22049,-1.11619 0,-2.16567 -1.36957,-5.00649 -2.63716,-5.47011 -2.15076,-0.78664 -11.76316,0.47757 -15.68938,2.06344 -1.99533,0.80595 -3.70926,1.38396 -3.80874,1.28448 -0.51287,-0.51286 9.81258,-7.50699 13.99684,-9.48101 16.11289,-7.60164 45.19862,-10.91753 65.30856,-7.44543 17.90207,3.0909 43.12121,13.13775 49.38245,19.67309 2.07448,2.16528 1.33513,2.07712 -2.82061,-0.33636 l 0,0 z"
         style="fill:#0066ff;fill-opacity:1;fill-rule:evenodd;stroke:#000000;stroke-width:0.60309279;stroke-linecap:butt;stroke-linejoin:miter;stroke-miterlimit:4;stroke-opacity:1;stroke-dasharray:none;stroke-dashoffset:0" />
      <path
         inkscape:export-ydpi="90"
         inkscape:export-xdpi="90"
         inkscape:export-filename="C:\Users\Dovile\Desktop\doodles\racer\blue.png"
         inkscape:connector-curvature="0"
         id="path3035-9"
         d="m -647.4653,564.35215 c 0.40184,-2.13835 1.03578,-4.2556 1.40876,-4.70501 0.37298,-0.44941 1.35853,-4.50099 2.19012,-9.00351 0.83158,-4.50252 1.84577,-8.91902 2.25376,-9.81445 1.03834,-2.2789 3.16641,-3.20369 11.25381,-4.89051 10.65669,-2.22271 26.94288,-3.05317 42.98832,-2.19204 13.35351,0.71665 17.78344,1.26257 23.48588,2.89427 l 3.34219,0.95633 0.99066,4.61651 c 4.07031,18.96777 5.29546,25.01716 5.10511,25.2075 -0.12035,0.12036 -1.68817,-0.28639 -3.48402,-0.90389 -22.13476,-7.61098 -60.22535,-7.39084 -85.58736,0.49465 -2.15606,0.67036 -4.09059,1.2209 -4.29897,1.22344 -0.20838,0.003 -0.0501,-1.74495 0.35174,-3.88329 z"
         style="fill:#0066ff;fill-opacity:1;fill-rule:evenodd;stroke:#000000;stroke-width:0.60309279;stroke-linecap:butt;stroke-linejoin:miter;stroke-miterlimit:4;stroke-opacity:1;stroke-dasharray:none;stroke-dashoffset:0" />
      <path
         inkscape:export-ydpi="90"
         inkscape:export-xdpi="90"
         inkscape:export-filename="C:\Users\Dovile\Desktop\doodles\racer\blue.png"
         inkscape:connector-curvature="0"
         id="path3037-2"
         d="m -541.901,642.99558 c -8.4,-8.51242 -21.29684,-18.4185 -36.48305,-28.02268 -9.98144,-6.31255 -11.27112,-6.85257 -17.48969,-7.32337 -6.04695,-0.45781 -10.29306,0.70167 -20.50515,5.59933 -12.02609,5.76763 -24.57607,13.37443 -39.36396,23.85928 -3.2746,2.32174 -6.04479,4.12758 -6.15599,4.01297 -0.30876,-0.31825 8.96505,-45.93882 9.50923,-46.77867 0.5833,-0.90021 8.43922,-3.42562 15.4451,-4.96507 21.46555,-4.71675 52.98881,-3.3694 85.79933,3.6672 l 2.83803,0.60865 0.91539,4.02924 c 3.90681,17.19643 10.17253,48.19458 9.90432,48.9992 -0.10778,0.32337 -2.09389,-1.33537 -4.41356,-3.68608 l 0,0 z"
         style="fill:#0066ff;fill-opacity:1;fill-rule:evenodd;stroke:#000000;stroke-width:0.60309279;stroke-linecap:butt;stroke-linejoin:miter;stroke-miterlimit:4;stroke-opacity:1;stroke-dasharray:none;stroke-dashoffset:0" />
      <path
         inkscape:export-ydpi="90"
         inkscape:export-xdpi="90"
         inkscape:export-filename="C:\Users\Dovile\Desktop\doodles\racer\blue.png"
         inkscape:connector-curvature="0"
         id="path3039-8"
         d="m -553.3557,587.79373 c -5.41922,-1.51611 -16.73356,-3.77777 -24.42525,-4.88246 -6.05518,-0.86964 -11.39571,-1.07836 -27.13918,-1.06063 -20.75865,0.0234 -27.19593,0.63588 -40.90757,3.89239 -2.80951,0.66726 -5.19248,1.12893 -5.29547,1.02593 -0.103,-0.10299 -0.0312,-0.78407 0.15956,-1.5135 0.62749,-2.39955 14.20829,-5.8838 30.19287,-7.74621 11.3966,-1.32784 37.36782,-0.85398 48.73265,0.88917 11.67335,1.79046 20.57749,4.25279 21.58869,5.97007 0.60233,1.02291 1.0746,4.37293 0.60941,4.32278 -0.27514,-0.0297 -1.8572,-0.43355 -3.51571,-0.89754 l 0,0 z"
         style="fill:#0066ff;fill-opacity:1;fill-rule:evenodd;stroke:#000000;stroke-width:0.60309279;stroke-linecap:butt;stroke-linejoin:miter;stroke-miterlimit:4;stroke-opacity:1;stroke-dasharray:none;stroke-dashoffset:0" />
      <path
         inkscape:export-ydpi="90"
         inkscape:export-xdpi="90"
         inkscape:export-filename="C:\Users\Dovile\Desktop\doodles\racer\blue.png"
         inkscape:connector-curvature="0"
         id="path3041-3"
         d="m -649.5069,576.53655 c 0.30855,-1.07584 0.561,-2.00645 0.561,-2.06803 0,-0.18673 6.59076,-2.05484 12.66494,-3.58979 22.27306,-5.6284 44.4505,-6.52398 63.92784,-2.58155 7.46461,1.51092 18.52293,4.73112 19.21747,5.59616 0.29992,0.37355 0.72912,1.5394 0.95378,2.59078 l 0.40846,1.91161 -5.61589,-1.68381 c -23.14722,-6.94021 -58.15586,-6.72159 -86.59982,0.5408 -6.30839,1.61068 -6.18953,1.62611 -5.51778,-0.71617 z"
         style="fill:#0066ff;fill-opacity:1;fill-rule:evenodd;stroke:#000000;stroke-width:0.60309279;stroke-linecap:butt;stroke-linejoin:miter;stroke-miterlimit:4;stroke-opacity:1;stroke-dasharray:none;stroke-dashoffset:0" />
      <path
         inkscape:export-ydpi="90"
         inkscape:export-xdpi="90"
         inkscape:export-filename="C:\Users\Dovile\Desktop\doodles\racer\blue.png"
         inkscape:connector-curvature="0"
         id="path3043-0"
         d="m -555.46652,943.07715 c 0,-1.72957 3.6047,-29.35769 3.89074,-29.82052 1.17169,-1.89582 8.81907,-60.39758 10.57315,-80.88362 0.47672,-5.56766 1.13737,-8.60329 3.30763,-15.19851 3.00046,-9.11811 5.00797,-20.23523 5.58284,-30.91641 0.29828,-5.54222 0.58594,-6.98141 1.74783,-8.74484 0.76493,-1.16096 3.02883,-6.35968 5.03089,-11.55272 l 3.64012,-9.44189 -0.0751,-21.61739 c -0.0413,-11.88956 -0.24487,-27.99509 -0.45232,-35.79007 -0.23864,-8.96667 -0.15776,-14.56036 0.2202,-15.22809 0.84726,-1.49685 9.03157,-1.55841 9.60188,-0.0722 0.44206,1.152 -0.04,21.76782 -0.87241,37.3132 -1.26415,23.60681 -0.65666,43.21148 2.4014,77.49742 3.42354,38.38345 3.72062,58.94572 1.18067,81.71908 -2.12128,19.01953 -4.85473,29.57514 -10.58912,40.89142 -2.85121,5.62659 -11.99699,13.82596 -19.8095,17.7596 -2.36519,1.19088 -13.60971,4.97527 -14.78299,4.97527 -0.32773,0 -0.59588,-0.40037 -0.59588,-0.88971 z m 10.62537,-30.27283 c 2.11997,-4.79362 8.5264,-26.85679 13.80438,-47.54107 6.9441,-27.21371 11.2857,-41.56442 12.65447,-41.82802 2.4354,-0.46902 2.7199,1.20258 2.7199,15.98061 0,8.69115 0.27413,15.24355 0.72057,17.22365 l 0.72057,3.19592 0.42139,-3.17973 c 0.23176,-1.74885 0.7471,-12.13983 1.1452,-23.09105 0.79509,-21.87221 0.16223,-42.32513 -1.56174,-50.47278 -1.55253,-7.3374 -2.42107,-5.95518 -4.45277,7.08634 -2.58908,16.61931 -21.14678,97.42919 -22.70006,98.84787 -0.4136,0.37776 -0.23817,-1.3722 1.23348,-12.30405 1.32289,-9.82684 3.8415,-32.46493 4.22713,-37.99485 0.31688,-4.54392 0.28575,-4.71513 -0.53473,-2.94145 -1.76899,3.82409 -11.78096,71.00654 -11.78532,79.08192 -10e-4,2.57902 1.82698,1.46538 3.38753,-2.06331 l 0,0 z"
         style="fill:#0066ff;fill-opacity:1;fill-rule:evenodd;stroke:#000000;stroke-width:0.60309279;stroke-linecap:butt;stroke-linejoin:miter;stroke-miterlimit:4;stroke-opacity:1;stroke-dasharray:none;stroke-dashoffset:0" />
      <path
         inkscape:export-ydpi="90"
         inkscape:export-xdpi="90"
         inkscape:export-filename="C:\Users\Dovile\Desktop\doodles\racer\blue.png"
         inkscape:connector-curvature="0"
         id="path3045-9"
         d="m -648.64436,941.61153 c -10.62425,-3.29586 -16.95122,-6.45814 -24.49948,-12.24508 -4.21365,-3.23043 -4.78674,-3.93863 -6.86543,-8.48402 -8.44281,-18.46162 -9.70989,-25.31303 -10.34175,-55.92073 -0.40674,-19.7029 0.20633,-35.0584 2.50419,-62.72165 0.81281,-9.78518 1.56316,-19.0125 1.66744,-20.50515 0.10429,-1.49266 0.19157,9.09162 0.19397,23.52061 0.004,23.23475 0.14957,27.32535 1.27425,35.77423 0.69844,5.24683 1.38944,9.65923 1.53556,9.80534 0.14611,0.14612 0.46075,-5.09661 0.6992,-11.65051 0.42596,-11.70798 0.97481,-17.2548 1.78776,-18.06775 0.22585,-0.22585 0.85183,0.0306 1.39106,0.56978 0.66969,0.66969 2.00922,6.58365 4.22654,18.65998 5.0231,27.3576 7.0505,35.73263 13.47749,55.6744 4.00116,12.4149 8.47565,21.40979 10.65025,21.40979 1.04087,0 1.00827,-0.57773 -0.41786,-7.40707 -0.665,-3.18447 -2.16288,-13.8257 -3.32862,-23.64718 -2.43563,-20.52034 -4.37079,-32.35871 -7.01639,-42.92294 -3.73783,-14.92565 -3.82951,-7.01738 -0.22487,19.3973 1.17689,8.62422 2.69937,19.28047 3.38328,23.68054 0.68392,4.40007 1.15653,8.43562 1.05025,8.96788 -0.10628,0.53227 -2.17134,-6.0531 -4.58903,-14.63415 -3.7683,-13.37472 -4.86268,-18.44294 -7.66639,-35.50396 -4.55169,-27.69784 -11.75998,-72.07692 -11.75998,-72.4024 0,-0.14866 -0.52676,-0.27029 -1.17059,-0.27029 -1.34441,0 -1.84718,0.65379 -2.51031,3.26437 -0.26013,1.02406 -0.28467,-1.66617 -0.0545,-5.97828 0.5721,-10.71962 0.30492,-44.41078 -0.49723,-62.70045 -0.36318,-8.28086 -0.48464,-16.694 -0.26991,-18.69587 l 0.39043,-3.63977 3.58618,-1.13355 c 1.9724,-0.62346 3.77965,-0.93984 4.01612,-0.70307 0.23647,0.23677 0.29425,9.4314 0.1284,20.43252 -0.38451,25.50514 -0.20522,39.23569 0.59264,45.38676 0.79506,6.12946 3.77336,18.37662 5.33983,21.95806 1.04851,2.39721 3.38872,12.70175 6.41217,28.23435 0.53692,2.75839 2.31974,9.2718 3.96182,14.47423 2.53246,8.02335 3.08109,10.64031 3.61484,17.2427 0.34609,4.28107 0.74469,7.97054 0.88578,8.19883 0.14109,0.22828 0.67243,5.27444 1.18075,11.21367 1.28619,15.02785 1.30643,15.18856 4.58823,36.43004 4.53752,29.36907 7.096,44.7907 8.40826,50.68194 0.66068,2.96611 1.20125,5.53149 1.20125,5.70085 0,0.55965 -1.44753,0.2582 -6.93557,-1.4443 l 0,0 z"
         style="fill:#0066ff;fill-opacity:1;fill-rule:evenodd;stroke:#000000;stroke-width:0.60309279;stroke-linecap:butt;stroke-linejoin:miter;stroke-miterlimit:4;stroke-opacity:1;stroke-dasharray:none;stroke-dashoffset:0" />
      <path
         inkscape:export-ydpi="90"
         inkscape:export-xdpi="90"
         inkscape:export-filename="C:\Users\Dovile\Desktop\doodles\racer\blue.png"
         inkscape:connector-curvature="0"
         id="path3047-3"
         d="m -551.24487,817.91138 c -6.36996,-0.73715 -83.63831,-2.02038 -92.06887,-1.52902 -4.25864,0.24821 -8.80924,0.49227 -10.11243,0.54237 l -2.36944,0.0911 -1.40595,-5.42783 c -2.37624,-9.17372 -4.33813,-19.13761 -5.36348,-27.23955 -0.8112,-6.40976 -0.96685,-13.64413 -0.90574,-42.09754 0.0686,-31.93438 0.27847,-36.4789 1.62271,-35.13467 0.21228,0.21228 0.6069,8.06455 0.87692,17.44948 0.70268,24.42278 1.94104,45.27364 3.61025,60.78774 1.27187,11.82105 4.07277,22.84218 3.29196,12.95334 -0.18277,-2.31467 -0.91591,-11.53607 -1.62921,-20.492 -1.06631,-13.38814 -1.30514,-21.3772 -1.34321,-44.93041 l -0.0463,-28.64691 3.31701,-0.44055 c 5.38684,-0.71546 69.76952,-1.16876 91.66294,-0.64537 l 20.19645,0.48283 0.91172,1.80928 c 1.09079,2.16461 1.09995,4.3603 0.11702,28.04381 -1.00887,24.30861 -1.66498,35.60865 -3.13297,53.95868 -0.68914,8.61426 -1.16478,16.34892 -1.05699,17.18814 0.31092,2.42076 1.56391,-3.7485 3.18103,-15.66228 2.49554,-18.38529 3.64896,-33.50519 4.54064,-59.52196 0.36044,-10.51685 0.903,-19.54216 1.20568,-20.05624 0.33721,-0.57272 0.44105,4.55379 0.26813,13.23799 -0.15522,7.79498 -0.42166,23.55068 -0.59209,35.01268 -0.46925,31.55713 -2.38813,48.79655 -6.52457,58.61748 -1.05625,2.5078 -0.97469,2.49149 -8.25121,1.64942 l 0,0 z"
         style="fill:#0066ff;fill-opacity:1;fill-rule:evenodd;stroke:#000000;stroke-width:0.60309279;stroke-linecap:butt;stroke-linejoin:miter;stroke-miterlimit:4;stroke-opacity:1;stroke-dasharray:none;stroke-dashoffset:0" />
      <path
         inkscape:export-ydpi="90"
         inkscape:export-xdpi="90"
         inkscape:export-filename="C:\Users\Dovile\Desktop\doodles\racer\blue.png"
         inkscape:connector-curvature="0"
         id="path3049-39"
         d="m -611.3281,948.79342 c -8.52543,-0.5081 -20.45369,-2.26884 -25.55595,-3.77233 -2.71375,-0.79966 -2.71398,-0.79997 -3.7576,-4.99785 -1.70458,-6.85651 -2.42547,-11.65158 -2.00411,-13.33041 0.37729,-1.50325 0.5289,-1.55751 3.22957,-1.15572 9.08962,1.35232 12.68317,1.63508 26.35431,2.07371 16.46761,0.52836 38.199,-0.0186 44.22109,-1.11291 2.09763,-0.38119 5.69357,-1.32901 7.99098,-2.10628 l 4.1771,-1.41322 0,4.0268 c 0,3.6691 -0.72769,11.38731 -1.52132,16.13564 -0.30933,1.85074 -0.41917,1.90731 -5.57881,2.87292 -14.84768,2.77869 -31.36862,3.74435 -47.55526,2.77965 l 0,0 z"
         style="fill:#0066ff;fill-opacity:1;fill-rule:evenodd;stroke:#000000;stroke-width:0.60309279;stroke-linecap:butt;stroke-linejoin:miter;stroke-miterlimit:4;stroke-opacity:1;stroke-dasharray:none;stroke-dashoffset:0" />
      <path
         inkscape:export-ydpi="90"
         inkscape:export-xdpi="90"
         inkscape:export-filename="C:\Users\Dovile\Desktop\doodles\racer\blue.png"
         inkscape:connector-curvature="0"
         id="path3051-2"
         d="m -688.6064,910.04289 c -1.75138,-2.17457 -5.14126,-10.13445 -6.17011,-14.48824 -1.86759,-7.90308 -2.5945,-20.16196 -2.15379,-36.32233 0.64681,-23.71764 3.00992,-52.74346 4.89147,-60.08118 2.50583,-9.77235 3.53624,-34.93261 3.08438,-75.31315 -0.21754,-19.44035 -0.15134,-33.09243 0.15793,-32.56701 0.29286,0.49755 0.59714,19.63067 0.67617,42.51804 l 0.14369,41.6134 -1.85978,21.4098 c -3.06967,35.33812 -3.34851,41.33574 -2.95803,63.62629 0.41629,23.76394 1.50925,35.98309 3.98176,44.51579 1.58701,5.47682 1.64363,6.87321 0.20631,5.08859 l 0,0 z"
         style="fill:#002255;fill-opacity:1;fill-rule:evenodd;stroke:#000000;stroke-width:0.60309279;stroke-linecap:butt;stroke-linejoin:miter;stroke-miterlimit:4;stroke-opacity:1;stroke-dasharray:none;stroke-dashoffset:0" />
      <path
         inkscape:export-ydpi="90"
         inkscape:export-xdpi="90"
         inkscape:export-filename="C:\Users\Dovile\Desktop\doodles\racer\blue.png"
         inkscape:connector-curvature="0"
         id="path3053-8"
         d="m -512.04384,910.82047 c 0,-0.31866 0.80503,-4.186 1.78896,-8.59407 2.47186,-11.07412 3.3863,-17.85922 4.56861,-33.89895 1.39091,-18.86979 0.52249,-37.36722 -3.72558,-79.35544 l -2.16609,-21.4098 0.45039,-32.26546 c 0.24772,-17.74601 0.61782,-35.11508 0.82246,-38.59794 0.20464,-3.48286 0.37208,10.49382 0.37208,31.05928 0,26.13038 0.23327,39.66219 0.77454,44.93041 0.42599,4.14627 1.44494,14.45915 2.26432,22.91753 0.81938,8.45838 1.92557,19.31405 2.4582,24.12371 0.53263,4.80967 1.20783,11.05168 1.50045,13.87114 0.76192,7.34134 0.71566,39.74118 -0.0715,50.0567 -0.72947,9.55988 -1.76229,13.47055 -5.95341,22.54223 -2.21644,4.79746 -3.08345,6.09671 -3.08345,4.62066 z"
         style="fill:#002255;fill-opacity:1;fill-rule:evenodd;stroke:#000000;stroke-width:0.60309279;stroke-linecap:butt;stroke-linejoin:miter;stroke-miterlimit:4;stroke-opacity:1;stroke-dasharray:none;stroke-dashoffset:0" />
      <path
         inkscape:export-ydpi="90"
         inkscape:export-xdpi="90"
         inkscape:export-filename="C:\Users\Dovile\Desktop\doodles\racer\blue.png"
         inkscape:connector-curvature="0"
         id="path3055-5"
         d="m -496.66497,696.17702 c -1.32681,-0.60412 -3.99641,-2.59806 -5.93245,-4.43099 -2.6968,-2.55316 -3.47259,-3.66842 -3.31701,-4.76851 0.46589,-3.29442 6.10465,-1.15052 10.69754,4.06729 2.48886,2.82749 2.77726,3.55372 2.10595,5.30313 -0.45479,1.18517 -0.58997,1.17867 -3.55403,-0.17092 z"
         style="fill:#002255;fill-opacity:1;fill-rule:evenodd;stroke:#000000;stroke-width:0.60309279;stroke-linecap:butt;stroke-linejoin:miter;stroke-miterlimit:4;stroke-opacity:1;stroke-dasharray:none;stroke-dashoffset:0" />
      <path
         inkscape:export-ydpi="90"
         inkscape:export-xdpi="90"
         inkscape:export-filename="C:\Users\Dovile\Desktop\doodles\racer\blue.png"
         inkscape:connector-curvature="0"
         id="path3057-3"
         d="m -510.2188,667.7202 c 0.009,-5.78818 0.27621,-22.32951 0.59453,-36.7585 0.59532,-26.98439 0.28767,-36.4611 -1.56628,-48.24743 -1.31742,-8.37541 -2.40922,-12.11188 -5.62347,-19.24525 -3.12296,-6.93077 -6.39935,-16.2244 -5.8969,-16.72684 0.5226,-0.5226 6.40331,8.25322 8.54584,12.75302 2.19028,4.6001 5.11381,14.52988 6.65859,22.61598 1.51901,7.95123 1.79384,23.13875 0.67116,37.09021 -0.53384,6.63402 -1.26007,22.37474 -1.61385,34.97938 -0.35532,12.6596 -0.89884,23.17397 -1.2143,23.49046 -0.35945,0.36062 -0.56524,-3.32709 -0.55532,-9.95103 l 0,0 z"
         style="fill:#002255;fill-opacity:1;fill-rule:evenodd;stroke:#000000;stroke-width:0.60309279;stroke-linecap:butt;stroke-linejoin:miter;stroke-miterlimit:4;stroke-opacity:1;stroke-dasharray:none;stroke-dashoffset:0" />
      <path
         inkscape:export-ydpi="90"
         inkscape:export-xdpi="90"
         inkscape:export-filename="C:\Users\Dovile\Desktop\doodles\racer\blue.png"
         inkscape:connector-curvature="0"
         id="path3059-3"
         d="m -689.52899,671.06737 c -0.26258,-3.98042 -0.75106,-11.82487 -1.08552,-17.43214 -0.33446,-5.60726 -1.155,-14.69888 -1.82343,-20.2036 -0.66842,-5.50473 -1.36862,-15.97921 -1.556,-23.27664 -0.43701,-17.01965 0.58523,-26.18088 4.105,-36.78866 2.38696,-7.19376 9.35329,-22.44284 9.97065,-21.82547 0.17767,0.17766 -1.74022,6.56096 -4.26196,14.18511 -6.29619,19.03567 -6.55725,21.01029 -6.19288,46.8414 0.15909,11.27783 0.59991,25.25451 0.97961,31.05927 0.3797,5.80477 0.61197,15.98196 0.51615,22.61598 l -0.17421,12.06186 -0.47741,-7.23711 z"
         style="fill:#002255;fill-opacity:1;fill-rule:evenodd;stroke:#000000;stroke-width:0.60309279;stroke-linecap:butt;stroke-linejoin:miter;stroke-miterlimit:4;stroke-opacity:1;stroke-dasharray:none;stroke-dashoffset:0" />
      <path
         inkscape:export-ydpi="90"
         inkscape:export-xdpi="90"
         inkscape:export-filename="C:\Users\Dovile\Desktop\doodles\racer\blue.png"
         inkscape:connector-curvature="0"
         id="path3061-3"
         d="m -706.19459,695.57695 c -1.10563,-2.06588 2.4666,-6.15403 7.68435,-8.79417 4.45551,-2.25445 7.39845,0.40973 3.96626,3.59058 -1.79145,1.66025 -6.77653,4.65509 -9.42315,5.66104 -1.3689,0.5203 -1.74559,0.44294 -2.22746,-0.45745 z"
         style="fill:#002255;fill-opacity:1;fill-rule:evenodd;stroke:#000000;stroke-width:0.60309279;stroke-linecap:butt;stroke-linejoin:miter;stroke-miterlimit:4;stroke-opacity:1;stroke-dasharray:none;stroke-dashoffset:0" />
      <path
         inkscape:export-ydpi="90"
         inkscape:export-xdpi="90"
         inkscape:export-filename="C:\Users\Dovile\Desktop\doodles\racer\blue.png"
         inkscape:connector-curvature="0"
         id="path3063-40"
         d="m -609.74487,918.26605 c -13.74325,-1.19513 -24.91773,-3.40847 -26.43433,-5.23586 -0.35521,-0.42801 -1.32606,-2.93752 -2.15744,-5.57669 -3.11673,-9.89391 -5.1736,-20.75843 -6.66555,-35.20779 -1.33361,-12.91581 -3.59398,-49.44826 -3.09061,-49.95071 0.56828,-0.56722 92.97016,-0.58089 95.04241,-0.0141 l 1.51148,0.41345 -0.73369,15.55505 c -1.3949,29.57344 -5.72523,65.42204 -8.95705,74.1508 -1.09395,2.95463 -2.94431,4.02493 -8.7296,5.04941 -3.77652,0.66876 -34.28452,1.29479 -39.78562,0.8164 l 0,0 z"
         style="fill:#002255;fill-opacity:1;fill-rule:evenodd;stroke:#000000;stroke-width:0.60309279;stroke-linecap:butt;stroke-linejoin:miter;stroke-miterlimit:4;stroke-opacity:1;stroke-dasharray:none;stroke-dashoffset:0" />
      <path
         inkscape:export-ydpi="90"
         inkscape:export-xdpi="90"
         inkscape:export-filename="C:\Users\Dovile\Desktop\doodles\racer\blue.png"
         inkscape:connector-curvature="0"
         id="path3065-6"
         d="m -659.76832,694.91847 c -4.83381,-0.79847 -8.21968,-6.378 -10.08197,-16.61399 -0.98416,-5.40943 -0.71555,-9.07324 1.04929,-14.3121 2.78682,-8.27255 9.01509,-15.8807 18.35092,-22.4166 5.33423,-3.73442 41.3049,-25.06619 44.90732,-26.63149 1.88939,-0.82096 4.06817,-1.17074 7.29258,-1.17074 4.14605,0 5.05117,0.22992 9.20469,2.33813 10.69508,5.42855 32.03069,22.41161 48.52621,38.62667 6.46693,6.35698 7.51578,7.6659 8.25197,10.29809 1.182,4.22614 2.35106,15.28558 2.00096,18.92922 -0.43146,4.49019 -2.70998,8.55314 -5.61884,10.01923 -2.3413,1.18003 -3.68128,1.20803 -61.79783,1.29128 -32.67255,0.0468 -60.61093,-0.11417 -62.0853,-0.3577 l 0,0 z"
         style="fill:#333333;fill-opacity:1;fill-rule:evenodd;stroke:#000000;stroke-width:0.60309279;stroke-linecap:butt;stroke-linejoin:miter;stroke-miterlimit:4;stroke-opacity:1;stroke-dasharray:none;stroke-dashoffset:0" />
      <path
         inkscape:export-ydpi="90"
         inkscape:export-xdpi="90"
         inkscape:export-filename="C:\Users\Dovile\Desktop\doodles\racer\blue.png"
         inkscape:connector-curvature="0"
         id="path3067-06"
         d="m -671.53847,757.61118 -2.38896,-6.93556 0.19437,-28.45135 c 0.1069,-15.64824 0.37084,-29.31421 0.58654,-30.36882 l 0.39216,-1.91748 2.40552,3.4955 2.40551,3.49549 -0.12181,20.54086 c -0.067,11.29746 -0.33839,26.51147 -0.60309,33.80889 l -0.48128,13.26804 -2.38896,-6.93557 z"
         style="fill:#333333;fill-opacity:1;fill-rule:evenodd;stroke:#000000;stroke-width:0.60309279;stroke-linecap:butt;stroke-linejoin:miter;stroke-miterlimit:4;stroke-opacity:1;stroke-dasharray:none;stroke-dashoffset:0" />
      <path
         inkscape:export-ydpi="90"
         inkscape:export-xdpi="90"
         inkscape:export-filename="C:\Users\Dovile\Desktop\doodles\racer\blue.png"
         inkscape:connector-curvature="0"
         id="path3069-5"
         d="m -531.32447,734.74115 c -0.0161,-30.34767 0.0965,-34.75722 0.91008,-35.65625 0.51063,-0.56424 1.69457,-2.84187 2.63097,-5.06139 l 1.70254,-4.0355 0.44593,31.05723 0.44592,31.05723 -2.53894,7.72987 c -1.39642,4.25143 -2.77277,8.13696 -3.05855,8.63451 -0.29537,0.51425 -0.52752,-14.04003 -0.53795,-33.7257 z"
         style="fill:#333333;fill-opacity:1;fill-rule:evenodd;stroke:#000000;stroke-width:0.60309279;stroke-linecap:butt;stroke-linejoin:miter;stroke-miterlimit:4;stroke-opacity:1;stroke-dasharray:none;stroke-dashoffset:0" />
      <path
         inkscape:export-ydpi="90"
         inkscape:export-xdpi="90"
         inkscape:export-filename="C:\Users\Dovile\Desktop\doodles\racer\blue.png"
         inkscape:connector-curvature="0"
         id="path3071-3"
         d="m -522.29642,570.04085 c -1.80845,-1.17759 -7.42461,-3.0396 -16.29984,-5.40413 -9.8194,-2.61607 -12.27621,-3.62033 -13.23375,-5.40952 -1.40535,-2.62591 -5.16835,-25.79968 -4.52074,-27.84013 0.50903,-1.60381 2.7529,-1.43391 7.90285,0.59839 10.5465,4.16191 17.35398,9.55098 21.54068,17.05245 2.12658,3.81029 5.79329,13.69309 6.59332,17.77085 0.45449,2.31652 -0.64238,4.10473 -1.98252,3.23209 l 0,0 z"
         style="fill:#999999;fill-opacity:1;fill-rule:evenodd;stroke:#000000;stroke-width:0.60309279;stroke-linecap:butt;stroke-linejoin:miter;stroke-miterlimit:4;stroke-opacity:1;stroke-dasharray:none;stroke-dashoffset:0" />
      <path
         inkscape:export-ydpi="90"
         inkscape:export-xdpi="90"
         inkscape:export-filename="C:\Users\Dovile\Desktop\doodles\racer\blue.png"
         inkscape:connector-curvature="0"
         id="path3073-2"
         d="m -679.94066,570.90464 c -1.30353,-3.39694 0.78928,-12.94599 4.53193,-20.67829 4.56158,-9.42423 14.38544,-17.43421 23.77215,-19.38288 2.81734,-0.58488 3.57987,-0.54953 4.755,0.22044 1.89224,1.23984 2.05104,2.63942 1.13882,10.03696 -1.6979,13.76888 -3.33779,17.92416 -8.18608,20.74246 -2.30502,1.3399 -24.13709,10.01527 -25.20401,10.01527 -0.24296,0 -0.60647,-0.42928 -0.80781,-0.95396 z"
         style="fill:#999999;fill-opacity:1;fill-rule:evenodd;stroke:#000000;stroke-width:0.60309279;stroke-linecap:butt;stroke-linejoin:miter;stroke-miterlimit:4;stroke-opacity:1;stroke-dasharray:none;stroke-dashoffset:0" />
    </g>
  </g>
</svg>
