<?xml version="1.0" encoding="iso-8859-1"?>
<!-- Generator: Adobe Illustrator 13.0.2, SVG Export Plug-In . SVG Version: 6.00 Build 14948)  -->
<!DOCTYPE svg PUBLIC "-//W3C//DTD SVG 1.1//EN" "http://www.w3.org/Graphics/SVG/1.1/DTD/svg11.dtd">
<svg version="1.1" id="running_chicken_xA0_Image_1_"
	 xmlns="http://www.w3.org/2000/svg" xmlns:xlink="http://www.w3.org/1999/xlink" x="0px" y="0px" width="216.486px"
	 height="185.108px" viewBox="0 0 216.486 185.108" style="enable-background:new 0 0 216.486 185.108;" xml:space="preserve">
<g>
	<path style="fill-rule:evenodd;clip-rule:evenodd;" d="M71.151,33.551c-0.429,4.199-1.917,7.339-5.207,8.677
		c-3.107-1.277-5.572-5.057-5.206-7.52C61.542,29.292,66.851,32.664,71.151,33.551z"/>
	<path style="fill-rule:evenodd;clip-rule:evenodd;" d="M67.102,47.434c-0.488,3.754-3.003,5.481-6.363,6.363
		c-0.421-2.473-3.345-4.872-1.735-7.52C61.435,44.883,65.683,45.959,67.102,47.434z"/>
	<path style="fill-rule:evenodd;clip-rule:evenodd;" d="M65.944,58.425c-1.246,2.611-2.087,5.625-5.206,6.363
		c-1.288-1.412-2.119-3.28-1.735-6.363C61.029,56.625,64.077,56.501,65.944,58.425z"/>
	<path style="fill-rule:evenodd;clip-rule:evenodd;" d="M189.157,176.432c-2.146,0.024-2.073-2.17-3.471-2.893
		c-9.36,0.457-19.674-2.379-27.767-3.471c-3.049,6.864,2.437,8.801,2.893,15.04c-7.881-1.018-10.109-10.678-9.834-17.933
		c-4.177-1.677-7.972,1.012-12.147,1.157c-2.277-0.641,2.447-3.512,3.471-4.628c1.965-0.541,4.239-0.773,6.363-1.157
		c-5.301-6.654-13.535-10.375-19.668-16.196c-5.787,1.008-10.144-3.492-16.197-4.05c-1.615-2.24-3.982-3.73-8.098-3.471
		c-2.307-2.321-5.788-3.468-7.52-6.363c-13.887-1.373-23.409,1.638-33.551,6.363c-1.342,0.185-2.221-0.093-2.893-0.578
		c-1.695,1.364-3.203,2.973-4.627,4.628c-3.67,4.265-6.576,8.457-10.413,13.304c-2.138,2.701-4.69,6.346-6.941,8.099
		c-1.856,1.446-4.68,1.87-6.941,3.471c-7.646,5.412-12.478,13.7-26.031,11.569c0.443-2.526,4.542,1.183,4.627-2.313
		c1.283-0.318,0.824,1.104,1.735,1.157c2.503-4.438,8.438-5.445,12.726-8.099c-1.514-1.287-4.445,0.929-6.363,1.156
		c-7.191-0.852-17.196,3.477-18.511-5.206c10.713,1.139,19.108,1.882,26.031-4.049c-2.845-2.244-10.41-1.134-16.197-1.157
		c1.663-3.929,8.714-2.47,12.726-4.049c-0.415,2.671-5.05,1.12-6.942,2.313c3.438,1.025,6.334,0.127,10.991,0.579
		c0.403-2.14-0.916-2.556-2.893-2.314c12.313-0.991,19.568-7.041,25.452-14.461c0.594-4.612,1.721-8.691,3.471-12.148
		c2.873-0.598,3.128-3.812,6.363-4.049c-2.743-2.978,0.702-9.826-1.735-12.147c0.422-1.314,1.741-1.73,2.893-2.314
		c-1.622-2.013-0.844-6.94-1.157-8.677c-2.797-3.181-9.701-2.254-11.569-6.363c1.191-0.958,0.693-4.062,1.157-5.206
		c-0.173,0.427,2.858-3.832,2.892-3.471c-0.023-0.249-5.542-7.209-6.363-8.099c-2.148-2.328-5.149-3.375-6.363-5.784
		c0.135-3.279,3.047-5.814,2.314-9.256c-0.645-3.025-5.662-5.484-6.942-9.833c-1.341-4.56,0.472-7.425-2.892-10.413
		c0-2.699,0-5.399,0-8.098c0.777-1.344,2.067-2.175,3.471-2.893c-1.42-5.696-2.712-15.543,4.628-15.619
		c-0.434-5.833,0.099-10.699,5.206-10.991c-0.05-2.942-0.253-6.038,1.157-7.52c9.184,0.468,13.093,6.137,18.511,11.569
		c2.39,2.396,5.35,4.583,6.942,6.941c3.354,4.967,5.173,11.424,8.098,16.775c6.161,4.638,7.602,13.995,9.834,22.561
		c15.253-4.165,36.053-2.296,52.062,0.578c-0.063,1.439-1.084,1.791,0,2.893c2.443,0.515,3.267-0.59,4.05-1.735
		c27.206,0.597,26.269-26.949,45.12-34.708c2.777,0.078,4.848-0.551,6.362-1.735c-0.601-1.63-1.106-5.412,0-6.941
		c4.131-0.467,4.827,2.5,8.678,2.313c0.959,2.849,4.888,4.442,6.362,7.52c0.859,1.795,0.416,4.561,1.157,6.363
		c1.24,3.017,5.228,4.946,2.893,8.099c-1.929-1.45-4.569-2.237-7.521-1.157c-2.457,2.17-3.401,5.854-6.363,7.52
		c-2.973,18.238-6.632,35.789-12.726,50.905c-4.521,6.296-11.428,8.73-18.511,13.305c-2.845,1.836-5.435,4.736-8.099,6.941
		c-3.795,3.141-6.941,5.47-11.569,8.099c-4.629,2.629-8.871,7.811-15.04,7.52c-1.094,1.413-0.021,4.993-1.735,5.784
		c1.455,4.141,3.919,5.125,7.52,8.099c1.706,1.409,3.012,4.164,4.628,5.206c1.77,1.142,3.902,0.773,5.785,1.735
		c0.505,0.259,0.704,1.41,1.156,1.735c1.441,1.036,3.723,1.42,5.785,2.314c2.304,0.999,4.927,2.996,6.941,3.471
		c7.595,1.788,15.285-3.549,23.717-0.578c0.637,2.063,2.461,2.938,2.893,5.206c-5.784-3.168-16.549-0.715-24.296-0.579
		c3.352,1.662,8.053,1.975,13.305,1.735c0.229,1.303,3.609-0.086,1.735,1.735c1.351,0,2.7,0,4.05,0
		c1.618,1.66,2.566,3.989,4.628,5.207C191.187,174.788,190.223,175.211,189.157,176.432z M151.557,164.283
		c-3.542-1.461-9.769-0.386-8.677,2.893c1.596-1.122,6.516-1.945,8.677-0.578c-0.013,7.762,2.184,16.278,8.099,16.196
		c-2.162-3.778-5.562-8.875-4.628-13.883c4.815-1.868,8.398,1.409,13.305,2.313c6.534,1.206,12.769,0.182,17.933,0.579
		c0.462,1.273,1.161,2.31,2.893,2.313c0.102-2.223-1.999-2.243-2.314-4.049c-8.103-1.154-20.347-1.246-23.138-5.785
		c6.613,1.871,18.301-1.285,26.03,0c-4.485-5.519-15.769,0.018-23.139-1.156c-2.087-0.333-5.276-2.265-8.098-3.471
		c-9.666-4.133-20.047-9.636-23.718-17.354c-3.207-0.57-6.88-0.536-8.098,2.314C136.218,149.928,146.209,154.784,151.557,164.283z
		 M52.64,133.625c-0.237,1.394,1.056,1.258,0.578,2.893c-3.879,8.461-9.374,15.307-16.775,20.246
		c0.281,2.641-1.718,5.758-4.627,6.941c-0.928,0.377-2.766-0.3-4.628,0c-5.287,0.851-9.384,5.521-13.883,2.893
		c-2.104,2.749-5.416,1.525-8.677,2.313c2.492,3.604,7.263,0.563,10.991,0c1.423-0.215,3.104,0.312,4.628,0
		c1.134-0.232,2.439-1.482,4.049-1.735c10.891-1.713,14.843-5.107,19.667-10.412c3.518-7.666,9.626-12.741,15.04-18.511
		c0-0.771,0-1.543,0-2.314c0.818-1.303,3.105-1.137,3.471-2.892c-2.735-1.245-1.219-3.437-2.892-5.206
		C55.747,128.248,55.412,132.155,52.64,133.625z M36.443,156.185c-2.624-1.418-6.283,0.483-7.52,2.314
		C30.939,157.237,36.019,159.038,36.443,156.185z M65.366,13.883c-1.582-1.84-4.881-4.791-6.941-5.206
		c-0.99,0.552-1.166,1.919-2.314,2.314c-0.624,1.478,2.49,2.024,0.578,2.892c-3.55,0.103-9.641-1.539-12.726,2.314
		c-2.233,5.625,2.845,8.387,0.579,11.569c-1.755-1.716-1.657-5.285-5.206-5.207c-2.713,10.65,2.073,18.729,5.785,24.874
		c-4.12-1.858-3.935-8.02-9.834-8.099c-3.643,6.655,2.427,12.25,5.206,16.197c-0.995-0.031-1.483,0.445-1.735,1.157
		c2.531,1.9,0.882,4.786,2.314,6.941c1.082,1.63,5.401,2.622,4.627,5.785c3.225,0.246,3.166,3.776,6.942,3.471
		c2.698-1.93,6.063-3.191,9.255-4.627c1.72-4.45,5.05-7.291,9.255-9.255c0.129-1.726-2.136-1.967-0.579-3.471
		c6.689,0.047,12.386,0.081,16.775,3.471c0.459-6.103-3.507-12.652-5.206-18.511c-1.344-1.536-1.548,1.535-2.893,0
		C75.871,31.023,71.526,21.05,65.366,13.883z M179.901,75.779c5.046-0.932,2.782-9.173,4.05-13.883
		C180.521,64.443,181.596,71.495,179.901,75.779z M203.04,27.188c0.451-0.128,0.673-0.484,0.579-1.157
		c-0.834-0.324-1.412-0.902-1.736-1.735c-5.058-0.222-7.354,0.589-10.412,1.735c-3.925,1.472-6.472,2.987-8.677,5.207
		c-6.376,6.417-10.374,17.693-17.354,23.717c-3.731,3.22-7.683,3.326-10.991,7.52c6.556,0.188,9.435-6.371,13.883-6.363
		c-2.579,1.561-2.153,3.052-3.471,5.207c-6.842,0.035-11.771,8.393-21.402,5.784c-0.479-1.635,0.814-1.498,0.578-2.892
		c-1.898,0.606-2.551-0.371-4.049,1.157c-0.237,1.394,1.056,1.258,0.578,2.893c8.676,3.143,15.335-1.79,21.403-4.628
		c-2.159,1.698-3.896,3.818-5.785,5.785c1.893,1.372,5.264-0.998,4.05-2.892c3.872,0.402,3.545-3.396,6.362-4.049
		c0.017,2.522-1.845,3.168-2.313,5.206c5.088-0.895,6.7-8.333,10.412-8.677c-2.979,5.501-6.255,10.375-12.147,10.412
		c-0.799,3.83-8.282,0.973-8.099,5.785c2.945-0.14,3.698-2.473,6.363-2.892c2.057,1.205,4.797,0.302,7.52-1.735
		c1.901-1.422,3.293-4.926,5.207-6.942c1.988-2.095,3.66-2.006,4.049-4.627c2.283,0.515,3.145-3.367,4.628-1.735
		c-2.037,3.748-3.323,8.247-6.941,10.412c-0.188,4.157-1.798,8.152-4.05,10.413c-1.092,1.096-2.85,0.823-4.049,1.735
		c-2.775,2.111-3.195,5.988-6.363,7.52c1.542,3.346-1.45,3.387-1.735,6.363c2.141,1.271,5.162-2.53,3.471-5.206
		c4.378-4.877,8.907-9.604,13.883-13.883c0-1.157,0-2.314,0-3.471c5.012-3.517,4.758-9.471,8.099-13.883
		c1.569,4.886-0.382,11.92,0.578,16.197c-1.125,3.317-5.273,6.67-4.049,10.413c3.967-3.42,6.421-9.238,5.784-15.619
		c3.109,4.18-0.192,9.512-1.156,14.461c5.576-1.173,2.451-11.046,5.784-14.461c2.875,4.823-1.128,12.681-1.156,16.197
		c1.701-1.054,3.247-4.193,4.049-6.363c1.627-4.405,2.703-10.111,3.471-15.04c0.742-4.771,1.364-9.474,1.735-13.305
		c-2.225,2.182-6.906,0.513-7.52-2.314c0.419-1.316,0.516-2.955,1.156-4.049C183.212,38.419,191.187,20.397,203.04,27.188z
		 M195.521,28.345c1.836,0.275,7.566,0.455,7.52,2.893c1.449,0.1,1.404-1.295,2.314-1.735c-1.661-0.268-3.188-0.669-3.472-2.314
		C200.467,28.741,196.265,25.366,195.521,28.345z M190.893,31.237c1.566-0.748,3.574-1.054,4.049-2.893
		C193.144,28.861,190.909,28.94,190.893,31.237z M194.363,30.08c-0.391,2.087,4.884,1.462,4.628,0
		C197.633,28.713,196.149,30.174,194.363,30.08z M195.521,39.914c3.232,1.366,7.583,0.238,9.834-1.157
		c-0.629-0.139-1.39-0.953-0.579-1.157c4.595-1.849,7.318,0.472,10.412,0.579c-1.155-7.309-8.025-3.728-12.147-6.363
		c-0.969,3.007-2.511,3.17-4.049,4.628c1.046-3.014-6.827-1.848-6.941-1.157c0.648-0.122,0.9-0.642,1.156-1.157
		c-1.739,0.583-1.024-1.289-1.156-2.314c-1.579-0.421-1.165,1.149-2.314,1.157c2.027,2.198-0.278,9.2,5.206,7.52
		c-0.859-0.683-2.584-0.5-2.313-2.314c1.401,1.802,2.559,0.436,3.471-1.157c-0.859-0.684-2.585-0.501-2.313-2.314
		c1.692,0.428,2.843,1.399,4.049,2.314C196.016,36.938,195.847,38.505,195.521,39.914z M102.388,57.847
		c-0.431,1.78,1.588,1.111,1.157,2.892c-2.966,3.976-13.091,0.792-16.197,4.627c9.302-0.557,21.764-0.054,31.237,2.314
		c-0.443,3.335,3.973,1.812,4.627,4.049c-3.421,2.612-10.027,4.936-15.04,4.049c0.629-4.164-4.966-6.417-10.991-5.785
		c-0.071,2.628-2.544,2.855-3.471,4.628c1.787,0.875,9.265-2.967,9.255,2.313c-2.308,1.356-2.727,4.601-5.207,5.785
		c-0.736-1.384-1.887-2.355-4.049-2.314c-1.412,1.288-2.781,2.618-2.893,5.207c4.393-0.684,4.235,0.895,6.941-1.157
		c1.329,1.271,0.939,1.922,0,3.471c1.319-0.162,2.175,0.14,2.314,1.157c-0.874,2.404-3.947,2.609-4.627,5.206
		c2.714,1.509,6.001-0.765,9.255-0.579c1.122-1.385,0.928-4.085,2.892-4.627c3.271-1.578,7.464,1.322,9.256-1.735
		c-2.802-3.562-12.495-0.232-14.462-4.628c4.341-3.564,11.759-4.052,19.668-4.049c2.702-3.661,5.904-6.821,10.99-8.098
		c-6.452-0.104-10.435-2.677-14.461-5.207c-4.8,0.794-8.81,0.037-9.834-5.206c0.19-2.124,4.113-0.514,4.049-2.892
		C109.944,58.075,106.037,57.832,102.388,57.847z M119.163,60.16c0,0.579,0,1.157,0,1.735c1.492,1.203,4.777,0.494,5.206-1.157
		C123.243,59.927,120.644,58.85,119.163,60.16z M68.258,84.456c-1.891-11.924,9.752-14.262,15.619-20.246
		c2.348-0.914,4.569-1.726,4.049-4.049c-12.094,2.753-24.798,4.897-28.923,15.619c-0.121,6.099-0.285,12.24,3.471,14.461
		c-0.532-3.29-4.118-13.306,1.157-16.197c0.674,0.097,0.628,0.915,0.578,1.735c2.36-0.532,2.387-3.398,5.207-3.471
		C68.019,75.825,64.401,82.037,68.258,84.456z M146.93,62.474c1.682,0.753,4.086,0.731,5.206-0.579
		C151.202,61.132,147.039,60.646,146.93,62.474z M136.517,64.788c-0.968-0.767-1.938-1.533-4.049-1.157
		C132.019,65.868,136.008,66.985,136.517,64.788z M169.489,73.465c1.87-0.444,3.027-1.601,3.471-3.471
		C170.086,69.434,169.203,70.865,169.489,73.465z M131.89,75.2c2.978,0.107,7.776,2.301,4.049,4.049
		c3.084,0.384,4.951-0.448,6.363-1.735c0-1.35,0-2.7,0-4.049C139.037,74.25,133.827,73.088,131.89,75.2z M154.449,80.406
		c0.77-0.407,7.265-0.048,6.363-4.049C157.499,76.515,156.107,78.594,154.449,80.406z M121.477,83.877
		c2.533-0.185,6.48-1.98,8.678-0.579c0.697,1.673-3.469,2.637-0.579,2.892c2.902,0.376,7.314-0.758,9.256,0.579
		c-5.036,3.79-15.263,4.971-23.139,4.049c-2.156,1.315-4.278,2.664-7.52,2.892c-0.477,2.03-1.742,3.271-2.314,5.206
		c1.735,0,3.471,0,5.206,0c0.229-2.856,1.579-4.592,3.471-5.784c3.826,0.608,10.185-1.315,12.148,1.157
		c-2.958,2.248-6.897,3.515-12.148,3.471c-0.137,2.45,1.201,3.426,2.892,4.049c1.607-0.899,2.169-2.845,3.471-4.049
		c6.496,1.289,7.121-3.292,9.256-6.363c3.153-0.125,6.954,0.398,9.255-0.579c0.842-1.28,0.39-3.853,1.735-4.628
		c5.008-1.162,9.734-2.606,12.727-5.785c-3.118-0.621-6.37,2.523-9.256,2.893c-1.658,0.212-4.54,0.918-5.784-1.157
		c-1.872-0.715-0.442,1.872-2.314,1.157c-1.724-0.012-0.741-2.729-1.735-3.471C129.944,81.862,120.108,76.874,121.477,83.877z
		 M166.597,90.24c3.607-0.835,9.826-2.119,8.099-6.363C171.638,85.64,166.76,85.583,166.597,90.24z M168.911,97.182
		c-1.828,0.285-0.215-2.87-2.314-2.313c-3.708,3.618-4.632,10.022-11.569,10.412c0.516,4.758-6.165,2.319-6.362,6.363
		c3.744-0.381,10.732-2.323,14.461-4.628c0.804,0.739,0.354,2.731,1.157,3.471c2.711-0.76,4.179-2.763,4.628-5.784
		c-2.124-0.383-3.61-1.403-4.05-3.471c4.109-3.026,9.632-4.637,13.305-8.099C174.152,91.384,172.825,96.941,168.911,97.182z
		 M134.781,99.496c-4.062,6.346-16.162,7.683-26.03,6.941c-2.577-0.194-5.672-2.233-9.255-2.893c-1.291-0.237-2.915,0.306-4.049,0
		c-6.207-1.672-15.04-6.633-17.354-10.412c-1.007-0.043-1.799,0.129-2.314,0.578c-2.13,1.555,2.456,3.2,0.579,4.628
		c-1.149-0.008-0.736-1.578-2.314-1.157c0.005,1.933,2.786,2.829,1.157,4.628c2.783,0.405,4.013,3.706,6.363,5.206
		c0.976,0.623,2.999,0.906,4.628,1.735c1.301,0.662,2.91,2.463,4.049,2.893c13.31,5.024,27.997-2.312,39.335-3.471
		c-1.09,5.009-7.026,5.141-12.726,4.049c1.899,2.728,5.866,3.389,10.412,3.471c3.316-2.661,6.446-5.508,6.941-10.99
		c2.5-2.898,7.249-3.55,8.677-7.521C139.725,97.497,138.792,100.035,134.781,99.496z M177.588,100.074
		c2.329-0.371,4.185-1.214,4.049-4.049C178.6,95.687,177.959,97.745,177.588,100.074z M148.086,116.85
		c-0.571,2.308,1.729,1.742,1.157,4.049c5.382,0.369,7.289-2.737,9.256-5.784C154.662,116.512,150.464,113.994,148.086,116.85z
		 M28.345,161.97c2.848,1.643,6.632-0.134,6.363-3.471C30.973,158.042,28.788,159.135,28.345,161.97z M25.452,168.911
		c-0.489,5.874-9.943,2.783-10.412,8.677c6.391-1.707,10.438-5.758,14.461-9.834C27.386,167.374,27.282,169.006,25.452,168.911z"/>
</g>
</svg>
